<?xml version="1.0" encoding="UTF-8" standalone="no"?>
<!-- Created with Inkscape (http://www.inkscape.org/) -->

<svg
   xmlns:dc="http://purl.org/dc/elements/1.1/"
   xmlns:cc="http://creativecommons.org/ns#"
   xmlns:rdf="http://www.w3.org/1999/02/22-rdf-syntax-ns#"
   xmlns:svg="http://www.w3.org/2000/svg"
   xmlns="http://www.w3.org/2000/svg"
   xmlns:sodipodi="http://sodipodi.sourceforge.net/DTD/sodipodi-0.dtd"
   xmlns:inkscape="http://www.inkscape.org/namespaces/inkscape"
   width="192"
   height="192"
   viewBox="0 0 50.799999 50.800001"
   version="1.1"
   id="svg8"
   inkscape:version="0.92.2 2405546, 2018-03-11"
   sodipodi:docname="ground_demo.svg"
   shape-rendering="crispEdges">
  <sodipodi:namedview
     id="base"
     pagecolor="#ffffff"
     bordercolor="#666666"
     borderopacity="1.0"
     inkscape:pageopacity="0.0"
     inkscape:pageshadow="2"
     inkscape:zoom="1.979899"
     inkscape:cx="174.1604"
     inkscape:cy="53.950623"
     inkscape:document-units="px"
     inkscape:current-layer="layer1"
     showgrid="false"
     units="px"
     showguides="true"
     inkscape:guide-bbox="true"
     inkscape:snap-page="true"
     inkscape:snap-object-midpoints="true"
     inkscape:window-width="1920"
     inkscape:window-height="1041"
     inkscape:window-x="0"
     inkscape:window-y="39"
     inkscape:window-maximized="0"
     inkscape:snap-global="true">
    <inkscape:grid
       type="xygrid"
       id="grid815" />
    <sodipodi:guide
       position="-2.6458333,16.933333"
       orientation="0,1"
       id="guide817"
       inkscape:locked="false" />
    <sodipodi:guide
       position="28.537202,33.734375"
       orientation="0,1"
       id="guide819"
       inkscape:locked="false" />
    <sodipodi:guide
       position="16.933333,-2.6458334"
       orientation="1,0"
       id="guide821"
       inkscape:locked="false" />
    <sodipodi:guide
       position="33.866666,-2.6458334"
       orientation="1,0"
       id="guide823"
       inkscape:locked="false" />
    <sodipodi:guide
       position="0,50.800001"
       orientation="0.70710678,0.70710678"
       id="guide827"
       inkscape:locked="false" />
    <sodipodi:guide
       position="50.799999,50.800001"
       orientation="-0.70710678,0.70710678"
       id="guide829"
       inkscape:locked="false" />
    <sodipodi:guide
       inkscape:locked="false"
       id="guide4779"
       orientation="0,1"
       position="49.212499,49.212501" />
    <sodipodi:guide
       inkscape:locked="false"
       id="guide4781"
       orientation="0,1"
       position="1.5874999,1.5875019" />
    <sodipodi:guide
       inkscape:locked="false"
       id="guide4783"
       orientation="1,0"
       position="1.5875,49.212501" />
    <sodipodi:guide
       inkscape:locked="false"
       id="guide4785"
       orientation="1,0"
       position="49.212499,1.5875007" />
    <sodipodi:guide
       position="44.979165,44.979167"
       orientation="0,1"
       id="guide5672"
       inkscape:locked="false" />
    <sodipodi:guide
       position="5.8208329,44.979169"
       orientation="1,0"
       id="guide5674"
       inkscape:locked="false" />
    <sodipodi:guide
       position="5.8208328,5.820835"
       orientation="0,1"
       id="guide5676"
       inkscape:locked="false" />
    <sodipodi:guide
       position="44.979165,5.8208351"
       orientation="1,0"
       id="guide5678"
       inkscape:locked="false" />
  </sodipodi:namedview>
  <defs
     id="defs2">
    <inkscape:path-effect
       effect="skeletal"
       id="path-effect5689"
       is_visible="true"
       pattern="M 0.03792347,3.0157057 9.4914556,3.7347986 14.55445,7.226742 l 8.483365,-1.712126 9.000106,1.1297386 4.721662,-3.8305891 10.11379,0.1345512 8.634841,-2.4281575 8.52971,2.4953197"
       copytype="single_stretched"
       prop_scale="1"
       scale_y_rel="false"
       spacing="0"
       normal_offset="0"
       tang_offset="0"
       prop_units="false"
       vertical_pattern="false"
       fuse_tolerance="0" />
    <inkscape:path-effect
       fuse_tolerance="0"
       vertical_pattern="false"
       prop_units="false"
       tang_offset="0"
       normal_offset="0"
       spacing="0"
       scale_y_rel="false"
       prop_scale="1"
       copytype="single_stretched"
       pattern="M 0.10778288,1.9108361 2.0804468,2.3463133 4.0789855,2.6411165 6.0895997,2.3104078 8.1152716,2.5311322 10.043809,1.8730409 l 2.03669,-0.065008 2.01256,-0.3250394 2.017864,0.2902677 2.007927,-0.3382677 2.011132,0.3186142 2.001932,0.1772598 1.995859,0.2362205 2.028321,0.1080945 1.96399,-0.518211 1.969516,-0.4406929 2.018181,-0.011339 2.019439,-0.2090079 2.011423,0.2759055 1.946457,-0.57308975 2.02582,-0.11489764 2.012958,-0.18217323 2.015622,0.1496693 1.997952,0.26532283 1.975911,0.39734169 2.021314,-0.2014488 2.004038,0.3318425 2.023956,-0.042709 1.972758,-0.45433702 2.018302,0.007559 1.97517,0.41510552 2.004007,0.1644095 1.974875,0.3780283"
       is_visible="true"
       id="path-effect4796"
       effect="skeletal" />
    <inkscape:path-effect
       fuse_tolerance="0"
       vertical_pattern="false"
       prop_units="false"
       tang_offset="0"
       normal_offset="0"
       spacing="0"
       scale_y_rel="false"
       prop_scale="1"
       copytype="repeated"
       pattern="m 0.02851755,246.70556 0.521934,0.11522 0.52878005,0.078 0.531975,-0.0875 0.535959,0.0584 0.5102589,-0.17412 0.5388742,-0.0172 0.5324898,-0.086 0.5338932,0.0768 0.531264,-0.0895 0.532112,0.0843 0.5296779,0.0469 0.528071,0.0625 0.5366599,0.0286 0.5196391,-0.13711 0.5211011,-0.1166 0.533977,-0.003 0.5343099,-0.0553 0.532189,0.073 0.5150004,-0.15163 0.535998,-0.0304 0.532595,-0.0482 0.5333,0.0396 0.528625,0.0702 0.522793,0.10513 0.534806,-0.0533 0.530235,0.0878 0.535505,-0.0113 0.521959,-0.12021 0.534009,0.002 0.522597,0.10983 0.530227,0.0435 0.522519,0.10002"
       is_visible="true"
       id="path-effect4748"
       effect="skeletal" />
    <inkscape:path-effect
       fuse_tolerance="0"
       vertical_pattern="false"
       prop_units="false"
       tang_offset="0"
       normal_offset="0"
       spacing="0"
       scale_y_rel="false"
       prop_scale="1"
       copytype="repeated"
       pattern="M 0,0 H 1"
       is_visible="true"
       id="path-effect4727"
       effect="skeletal" />
    <inkscape:path-effect
       effect="simplify"
       id="path-effect4546"
       is_visible="true"
       steps="1"
       threshold="0.002"
       smooth_angles="0"
       helper_size="5"
       simplify_individual_paths="false"
       simplify_just_coalesce="false" />
    <inkscape:path-effect
       effect="sketch"
       id="path-effect841"
       is_visible="true"
       nbiter_approxstrokes="5"
       strokelength="100"
       strokelength_rdm="0.3;1"
       strokeoverlap="0.3"
       strokeoverlap_rdm="0.3;1"
       ends_tolerance="0.1;1"
       parallel_offset="5;1"
       tremble_size="5;1"
       tremble_frequency="1"
       nbtangents="5"
       tgt_places_rdmness="1;1"
       tgtscale="10"
       tgtlength="100"
       tgtlength_rdm="0.3;1" />
    <inkscape:path-effect
       effect="knot"
       id="path-effect839"
       is_visible="true"
       interruption_width="3"
       prop_to_stroke_width="true"
       add_stroke_width="true"
       add_other_stroke_width="true"
       switcher_size="15"
       crossing_points_vector="" />
  </defs>
  <metadata
     id="metadata5">
    <rdf:RDF>
      <cc:Work
         rdf:about="">
        <dc:format>image/svg+xml</dc:format>
        <dc:type
           rdf:resource="http://purl.org/dc/dcmitype/StillImage" />
        <dc:title></dc:title>
      </cc:Work>
    </rdf:RDF>
  </metadata>
  <g
     inkscape:label="Layer 1"
     inkscape:groupmode="layer"
     id="layer1"
     transform="translate(0,-246.19998)">
    <path
       inkscape:connector-curvature="0"
       id="path4812"
       d="m 49.312166,279.54403 0.0435,-0.53023 0.10983,-0.52259 0.002,-0.53401 -0.12021,-0.52196 -0.0113,-0.53551 0.0878,-0.53023 -0.0533,-0.53481 0.10513,-0.52279 0.0702,-0.52863 0.0396,-0.5333 -0.0482,-0.53259 -0.0304,-0.536 -0.15163,-0.515 0.073,-0.53219 -0.0553,-0.53431 -0.003,-0.53397 -0.1166,-0.52111 -0.13711,-0.51963 0.0286,-0.53666 0.0625,-0.52808 0.0469,-0.52967 0.0843,-0.53212 -0.0895,-0.53126 0.0768,-0.53389 -0.086,-0.53249 -0.0172,-0.53888 -0.17412,-0.51026 0.0584,-0.53595 -0.0875,-0.53198 0.078,-0.52878 0.11522,-0.52193 0.20503,-0.89363 0.078,-0.90534 -0.0875,-0.91081 0.0584,-0.91764 -0.17412,-0.87363 -0.0172,-0.92263 -0.086,-0.91169 0.0768,-0.9141 -0.0895,-0.9096 0.0843,-0.91105 0.0469,-0.90688 0.0625,-0.90413 0.0154,-0.49596 c 0.004,-0.14806 -0.002,-0.29558 -0.0154,-0.44197 -0.083,-0.30142 -0.20119,-0.58449 -0.34738,-0.84654 -0.14016,-0.2652 -0.309,-0.51073 -0.4996,-0.73358 -0.16296,-0.24933 -0.35309,-0.48189 -0.56499,-0.69238 -0.22432,-0.19835 -0.46787,-0.37204 -0.72434,-0.5167 -0.23239,-0.17967 -0.48532,-0.33527 -0.75477,-0.46023 -0.28605,-0.0522 -0.57209,-0.0703 -0.85083,-0.052 -0.1278,-0.0102 -0.25615,-0.0128 -0.38453,-0.007 l -0.50644,0.0168 -0.91188,0.0482 -0.91308,-0.0396 -0.90508,-0.0702 -0.89509,-0.10513 -0.91567,0.0533 -0.90783,-0.0878 -0.91686,0.0113 -0.89366,0.12021 -0.9143,-0.002 -0.89476,-0.10983 -0.90782,-0.0435 -0.89461,-0.01 -0.522519,-0.0998 -0.530227,-0.0435 -0.522597,-0.10983 -0.534009,-0.002 -0.521959,0.12021 -0.535505,0.0113 -0.530235,-0.0878 -0.534806,0.0533 -0.522793,-0.10513 -0.528625,-0.0702 -0.5333,-0.0396 -0.532595,0.0482 -0.535998,0.0304 -0.515,0.15163 -0.532189,-0.073 -0.53431,0.0553 -0.533977,0.003 -0.521101,0.1166 -0.519639,0.13711 -0.53666,-0.0286 -0.528071,-0.0625 -0.529678,-0.0469 -0.532112,-0.0843 -0.531264,0.0895 -0.533893,-0.0768 -0.53249,0.086 -0.538874,0.0172 -0.510259,0.17412 -0.535959,-0.0584 -0.531975,0.0875 -0.52878,-0.078 -0.521934,-0.11522 -0.893622,-0.20503 -0.905344,-0.078 -0.910814,0.0875 -0.917636,-0.0584 -0.873633,0.17412 -0.922626,0.0172 -0.911696,0.086 -0.9140978,-0.0768 -0.9095968,0.0895 -0.9110487,-0.0843 -0.9068811,-0.0469 -0.9041299,-0.0625 -0.4959578,-0.0154 c -0.1480656,-0.004 -0.2955821,0.002 -0.4419708,0.0154 -0.3014263,0.083 -0.58449,0.20119 -0.8465399,0.34738 -0.2651985,0.14016 -0.5107329,0.309 -0.7335801,0.4996 -0.2493285,0.16296 -0.4818888,0.35309 -0.6923828,0.56499 -0.1983471,0.22432 -0.3720441,0.46787 -0.5167032,0.72434 -0.1796659,0.23239 -0.335265,0.48532 -0.4602279,0.75477 -0.052243,0.28605 -0.070336,0.57209 -0.051954,0.85083 -0.010162,0.1278 -0.012755,0.25615 -0.00734,0.38453 l 0.016776,0.50644 0.0482,0.91188 -0.0396,0.91308 -0.0702,0.90508 -0.10513,0.89509 0.0533,0.91567 -0.0878,0.90783 0.0113,0.91686 0.12021,0.89366 -0.002,0.9143 -0.10983,0.89476 -0.0435,0.90782 -0.00978,0.89467 -0.1000186,0.52259 -0.0435,0.53023 -0.10983,0.52259 -0.002,0.53401 0.12021,0.52196 0.0113,0.53551 -0.0878,0.53023 0.0533,0.53481 -0.10513,0.52279 -0.0702,0.52863 -0.0396,0.5333 0.0482,0.53259 0.0304,0.536 0.15163,0.515 -0.073,0.53219 0.0553,0.53431 0.003,0.53397 0.1166,0.52111 0.13711,0.51963 -0.0286,0.53666 -0.0625,0.52808 -0.0469,0.52967 -0.0843,0.53212 0.0895,0.53126 -0.0768,0.53389 0.086,0.53249 0.0172,0.53888 0.17412,0.51026 -0.0584,0.53595 0.0875,0.53198 -0.078,0.52878 -0.11522,0.52193 -0.20503,0.89363 -0.078,0.90534 0.0875,0.91081 -0.0584,0.91764 0.17412,0.87363 0.0172,0.92263 0.086,0.91169 -0.0768,0.9141 0.0895,0.9096 -0.0843,0.91105 -0.0469,0.90688 -0.0625,0.90413 -0.0154,0.49596 c -0.004,0.14806 0.002,0.29558 0.0154,0.44197 0.083,0.30142 0.20119,0.58449 0.34738,0.84654 0.14016,0.2652 0.309,0.51073 0.4996,0.73358 0.16296,0.24933 0.35309,0.48189 0.56499,0.69238 0.22432,0.19835 0.46787,0.37204 0.72434,0.5167 0.23239,0.17967 0.48532,0.33527 0.75477,0.46023 0.28605,0.0522 0.57209,0.0703 0.85083,0.052 0.1278,0.0102 0.25615,0.0128 0.38453,0.007 l 0.50644,-0.0168 0.91188,-0.0482 0.91308,0.0396 0.90508,0.0702 0.8950902,0.10513 0.9156698,-0.0533 0.90783,0.0878 0.91686,-0.0113 0.89366,-0.12021 0.9143,0.002 0.89476,0.10983 0.90782,0.0435 0.89461,0.01 0.52252,0.0998 0.53023,0.0435 0.52259,0.10983 0.53401,0.002 0.52196,-0.12021 0.53551,-0.0113 0.53023,0.0878 0.53481,-0.0533 0.52279,0.10513 0.52863,0.0702 0.5333,0.0396 0.53259,-0.0482 0.536,-0.0304 0.515,-0.15163 0.53219,0.073 0.53431,-0.0553 0.53397,-0.003 0.52111,-0.1166 0.51963,-0.13711 0.53666,0.0286 0.52808,0.0625 0.52967,0.0469 0.53212,0.0843 0.53126,-0.0895 0.53389,0.0768 0.53249,-0.086 0.53888,-0.0172 0.51026,-0.17412 0.53595,0.0584 0.53198,-0.0875 0.52878,0.078 0.52193,0.11522 0.89363,0.20503 0.90534,0.078 0.91081,-0.0875 0.91764,0.0584 0.87363,-0.17412 0.92263,-0.0172 0.91169,-0.086 0.9141,0.0768 0.9096,-0.0895 0.91105,0.0843 0.90688,0.0469 0.90413,0.0625 0.49596,0.0154 c 0.14806,0.004 0.29558,-0.002 0.44197,-0.0154 0.30142,-0.083 0.58449,-0.20119 0.84654,-0.34738 0.2652,-0.14016 0.51073,-0.309 0.73358,-0.4996 0.24933,-0.16296 0.48189,-0.35309 0.69238,-0.56499 0.19835,-0.22432 0.37204,-0.46787 0.5167,-0.72434 0.17967,-0.23239 0.33527,-0.48532 0.46023,-0.75477 0.0522,-0.28605 0.0703,-0.57209 0.052,-0.85083 0.0102,-0.1278 0.0127,-0.25615 0.007,-0.38453 l -0.0168,-0.50644 -0.0482,-0.91188 0.0396,-0.91308 0.0702,-0.90508 0.10513,-0.89509 -0.0533,-0.91567 0.0878,-0.90783 -0.0113,-0.91686 -0.12021,-0.89366 0.002,-0.9143 0.10983,-0.89476 0.0435,-0.90782 0.01005,-0.89467 z"
       style="fill:#5fff01;stroke:none;stroke-width:0.26458332px;stroke-linecap:butt;stroke-linejoin:miter;stroke-opacity:1;fill-opacity:1"
       sodipodi:nodetypes="ccccccccccccccccccccccccccccccccccccccccccccccccccccccccccccccccccccccccccccccccccccccccccccccccccccccccccccccccccccccccccccccccccccccccccccccccccccccccccccccccccccccccccccccccccccccccccccccccccccccccccccccccccccccccccccccccccccccccccccccccccccccccccccccccccccccccc" />
    <path
       sodipodi:nodetypes="ccccccccccccccccccccccccccccccccccccccccccccccccccccccccccccccccccccccccc"
       style="fill:#5c3a00;stroke:none;stroke-width:0.26458332px;stroke-linecap:butt;stroke-linejoin:miter;stroke-opacity:1;fill-opacity:1"
       d="m 45.771746,277.81006 -0.64245,-2.28465 0.0356,-2.67594 -1.01351,-1.24927 0.29891,-2.38128 -0.453,-2.24456 0.92391,-1.33958 0.19029,-2.50125 -0.0367,-3.1016 0.92391,-1.66111 -0.453,-2.7833 0.0396,-0.39149 c 0.0716,-1.00111 -0.29706,-2.0088 -0.97803,-2.78343 -0.6814,-0.18862 -1.35331,-0.17351 -1.89524,0.006 -0.25028,-0.0817 -0.51121,-0.12657 -0.77558,-0.12681 -0.81277,-0.009 -1.62553,-0.0174 -2.4383,-0.0262 l -2.833,0.64245 -2.79849,-0.88723 -2.256819,-0.66022 -2.284635,0.64245 -2.67594,-0.0356 -1.249273,1.01351 -2.381278,-0.29891 -2.244557,0.453 -1.339584,-0.92391 -2.501247,-0.19029 -3.101601,0.0367 -1.661114,-0.92391 -2.7832996,0.453 -0.3914852,-0.0396 c -1.0011132,-0.0716 -2.0088079,0.29706 -2.7834317,0.97803 -0.1886185,0.6814 -0.1735074,1.35331 0.00618,1.89524 -0.081741,0.25028 -0.1265764,0.51121 -0.1268143,0.77558 l -0.026159,2.4383 0.6424498,2.833 -0.8872253,2.79845 -0.6602198,2.25679 0.64245,2.28465 -0.0356,2.67594 1.01351,1.24927 -0.29891,2.38128 0.453,2.24456 -0.92391,1.33958 -0.19029,2.50125 0.0367,3.1016 -0.92391,1.66111 0.453,2.7833 -0.0396,0.39149 c -0.0716,1.00111 0.29706,2.0088 0.97803,2.78343 0.6814,0.18862 1.35331,0.17351 1.89524,-0.006 0.25028,0.0817 0.51121,0.12657 0.77558,0.12681 0.81277,0.009 1.6255301,0.0174 2.4383001,0.0262 l 2.833,-0.64245 2.79849,0.88723 2.25682,0.66022 2.28463,-0.64245 2.67594,0.0356 1.24928,-1.01351 2.38127,0.29891 2.24456,-0.453 1.33958,0.92391 2.50125,0.19029 3.1016,-0.0367 1.66112,0.92391 2.7833,-0.453 0.39148,0.0396 c 1.00111,0.0716 2.00881,-0.29706 2.78343,-0.97803 0.18862,-0.6814 0.17351,-1.35331 -0.006,-1.89524 0.0817,-0.25028 0.12658,-0.51121 0.12682,-0.77558 l 0.0262,-2.4383 -0.64245,-2.833 0.887111,-2.79846 z"
       id="path5697"
       inkscape:connector-curvature="0" />
  </g>
</svg>
